<svg width="65" height="63" viewBox="0 0 65 63" fill="none" xmlns="http://www.w3.org/2000/svg">
<path d="M22.0072 17.1479V39.1537H6.003C4.94186 39.1537 3.92417 38.7322 3.17383 37.9818C2.42349 37.2315 2.00195 36.2138 2.00195 35.1527V21.149C2.00195 20.0879 2.42349 19.0702 3.17383 18.3198C3.92417 17.5695 4.94186 17.1479 6.003 17.1479H22.0072Z" fill="#008DA4"/>
<path d="M46.0121 6.14502V50.1565L22.0059 39.1537V17.1479L46.0121 6.14502Z" fill="#008DA4"/>
<path d="M14.8045 60.1587H8.80295C8.30372 60.1609 7.82169 59.9765 7.45153 59.6415C7.08137 59.3065 6.84985 58.8452 6.80242 58.3482L5.00195 39.1532H15.0046C16.3549 53.3869 16.805 58.1582 16.795 57.9681C16.8215 58.2455 16.7897 58.5254 16.7018 58.7898C16.6138 59.0542 16.4715 59.2973 16.2841 59.5035C16.0967 59.7097 15.8683 59.8746 15.6135 59.9874C15.3587 60.1002 15.0832 60.1585 14.8045 60.1587Z" fill="#008DA4"/>
<path d="M50.0128 54.1577C48.9516 54.1577 47.9339 53.7361 47.1836 52.9858C46.4333 52.2354 46.0117 51.2178 46.0117 50.1566V6.14509C46.0117 5.08395 46.4333 4.06626 47.1836 3.31592C47.9339 2.56558 48.9516 2.14404 50.0128 2.14404C51.0739 2.14404 52.0916 2.56558 52.8419 3.31592C53.5923 4.06626 54.0138 5.08395 54.0138 6.14509V50.1566C54.0138 51.2178 53.5923 52.2354 52.8419 52.9858C52.0916 53.7361 51.0739 54.1577 50.0128 54.1577Z" fill="#008DA4"/>
<path d="M54.0137 36.1526C56.136 36.1526 58.1713 35.3095 59.672 33.8089C61.1727 32.3082 62.0158 30.2728 62.0158 28.1505C62.0158 26.0282 61.1727 23.9929 59.672 22.4922C58.1713 20.9915 56.136 20.1484 54.0137 20.1484V36.1526Z" fill="#008DA4"/>
<path d="M22.0077 39.1533V49.1559H15.9561L15.0059 39.1533H22.0077Z" fill="#008DA4"/>
<path d="M64.0168 28.1512C64.0172 25.8453 63.221 23.6101 61.7628 21.8238C60.3046 20.0375 58.274 18.8098 56.0147 18.3487V6.14546C56.0107 4.67514 55.4671 3.25745 54.487 2.16139C53.507 1.06532 52.1587 0.36716 50.698 0.199375C49.2373 0.0315903 47.7658 0.405859 46.5627 1.25116C45.3597 2.09647 44.5088 3.35399 44.1716 4.7851L21.5656 15.1478H6.00157C4.40986 15.1478 2.88333 15.7801 1.75782 16.9056C0.632307 18.0311 2.92449e-07 19.5577 2.92449e-07 21.1494V35.153C-0.000335323 36.2283 0.288201 37.2839 0.835442 38.2094C1.38268 39.135 2.16853 39.8965 3.11081 40.4144L4.84127 58.5392C4.93611 59.5331 5.39917 60.4557 6.13948 61.1257C6.87979 61.7957 7.84386 62.1646 8.84231 62.1601H14.8439C15.4029 62.1626 15.9562 62.048 16.4682 61.8236C16.9802 61.5992 17.4394 61.27 17.8164 60.8572C18.1934 60.4444 18.4797 59.9573 18.6568 59.4271C18.834 58.8969 18.898 58.3354 18.8449 57.779L18.1548 51.1572H22.0058C22.5363 51.1572 23.0452 50.9465 23.4203 50.5713C23.7955 50.1961 24.0063 49.6873 24.0063 49.1567V42.2749L44.1716 51.5173C44.5088 52.9484 45.3597 54.206 46.5627 55.0513C47.7658 55.8966 49.2373 56.2708 50.698 56.1031C52.1587 55.9353 53.507 55.2371 54.487 54.141C55.4671 53.045 56.0107 51.6273 56.0147 50.157V37.9538C58.274 37.4926 60.3046 36.265 61.7628 34.4787C63.221 32.6924 64.0172 30.4571 64.0168 28.1512ZM4.00105 21.1494C4.00105 20.6188 4.21182 20.11 4.58699 19.7348C4.96216 19.3596 5.471 19.1489 6.00157 19.1489H20.0052V37.1536H6.00157C5.471 37.1536 4.96216 36.9428 4.58699 36.5676C4.21182 36.1925 4.00105 35.6836 4.00105 35.153V21.1494ZM8.82231 58.1591L7.20189 41.1546H13.2035C13.2535 41.6247 14.7139 56.9488 14.8239 58.1591H8.82231ZM20.0052 47.1562H17.7747L17.2045 41.1546H20.0052V47.1562ZM24.0063 18.4287L44.0115 9.26628V47.0362L24.0063 37.8738V18.4287ZM52.0136 50.157C52.0136 50.6875 51.8028 51.1964 51.4277 51.5716C51.0525 51.9467 50.5437 52.1575 50.0131 52.1575C49.4825 52.1575 48.9737 51.9467 48.5985 51.5716C48.2233 51.1964 48.0126 50.6875 48.0126 50.157V6.14546C48.0126 5.61489 48.2233 5.10605 48.5985 4.73088C48.9737 4.3557 49.4825 4.14493 50.0131 4.14493C50.5437 4.14493 51.0525 4.3557 51.4277 4.73088C51.8028 5.10605 52.0136 5.61489 52.0136 6.14546V50.157ZM56.0147 33.8127V22.4897C57.1869 22.9021 58.2023 23.6682 58.9206 24.6823C59.6389 25.6964 60.0246 26.9085 60.0246 28.1512C60.0246 29.3939 59.6389 30.606 58.9206 31.6201C58.2023 32.6342 57.1869 33.4003 56.0147 33.8127Z" fill="#E1FDFF"/>
</svg>
