<svg width="57" height="70" viewBox="0 0 57 70" fill="none" xmlns="http://www.w3.org/2000/svg">
<path d="M35 3.16016H9.4C7.70261 3.16016 6.07475 3.83444 4.87452 5.03467C3.67428 6.23491 3 7.86277 3 9.56016V60.7602C3 62.4575 3.67428 64.0854 4.87452 65.2856C6.07475 66.4859 7.70261 67.1602 9.4 67.1602H47.8C49.4974 67.1602 51.1253 66.4859 52.3255 65.2856C53.5257 64.0854 54.2 62.4575 54.2 60.7602V22.3602L35 3.16016Z" stroke="#EBEBFF" stroke-width="5" stroke-linecap="round" stroke-linejoin="round"/>
<path d="M35 3.16016V22.3602H54.2" stroke="#EBEBFF" stroke-width="5" stroke-linecap="round" stroke-linejoin="round"/>
<path d="M41.4008 38.3604H15.8008" stroke="#EBEBFF" stroke-width="5" stroke-linecap="round" stroke-linejoin="round"/>
<path d="M41.4008 51.1602H15.8008" stroke="#EBEBFF" stroke-width="5" stroke-linecap="round" stroke-linejoin="round"/>
<path d="M22.2008 25.5601H19.0008H15.8008" stroke="#EBEBFF" stroke-width="5" stroke-linecap="round" stroke-linejoin="round"/>
</svg>
