<svg width="86" height="86" viewBox="0 0 86 86" fill="none" xmlns="http://www.w3.org/2000/svg">
<path d="M74.9961 43.1602V83.1602H10.9961V43.1602" stroke="#FEF1FD" stroke-width="5" stroke-linecap="round" stroke-linejoin="round"/>
<path d="M83 23.1602H3V43.1602H83V23.1602Z" stroke="#FEF1FD" stroke-width="5" stroke-linecap="round" stroke-linejoin="round"/>
<path d="M43 83.1602V23.1602" stroke="#FEF1FD" stroke-width="5" stroke-linecap="round" stroke-linejoin="round"/>
<path d="M43.0039 23.1602H25.0039C22.3517 23.1602 19.8082 22.1066 17.9328 20.2312C16.0575 18.3559 15.0039 15.8123 15.0039 13.1602C15.0039 10.508 16.0575 7.96445 17.9328 6.08909C19.8082 4.21372 22.3517 3.16016 25.0039 3.16016C39.0039 3.16016 43.0039 23.1602 43.0039 23.1602Z" stroke="#FEF1FD" stroke-width="5" stroke-linecap="round" stroke-linejoin="round"/>
<path d="M43 23.1602H61C63.6522 23.1602 66.1957 22.1066 68.0711 20.2312C69.9464 18.3559 71 15.8123 71 13.1602C71 10.508 69.9464 7.96445 68.0711 6.08909C66.1957 4.21372 63.6522 3.16016 61 3.16016C47 3.16016 43 23.1602 43 23.1602Z" stroke="#FEF1FD" stroke-width="5" stroke-linecap="round" stroke-linejoin="round"/>
</svg>
