<svg width="102" height="102" viewBox="0 0 102 102" fill="none" xmlns="http://www.w3.org/2000/svg">
<path d="M50.997 51.161C55.8192 51.161 59.7283 47.2518 59.7283 42.4296C59.7283 37.6074 55.8192 33.6982 50.997 33.6982C46.1748 33.6982 42.2656 37.6074 42.2656 42.4296C42.2656 47.2518 46.1748 51.161 50.997 51.161Z" stroke="#FEF7F6" stroke-width="5" stroke-miterlimit="10" stroke-linejoin="round"/>
<path d="M37.9258 64.2339C37.9258 60.7664 39.3032 57.4409 41.7551 54.989C44.207 52.5371 47.5325 51.1597 51 51.1597C54.4675 51.1597 57.7929 52.5371 60.2448 54.989C62.6967 57.4409 64.0742 60.7664 64.0742 64.2339" stroke="#FEF7F6" stroke-width="5" stroke-miterlimit="10" stroke-linejoin="round"/>
<path d="M78.4284 11.8924C86.7613 17.7499 93.0148 26.1063 96.2845 35.7529C99.5541 45.3995 99.6703 55.8362 96.6162 65.5532C93.5621 75.2702 87.4962 83.7638 79.2957 89.8053C71.0953 95.8469 61.1856 99.1232 51 99.1603" stroke="#FEF7F6" stroke-width="5" stroke-miterlimit="10" stroke-linejoin="round"/>
<path d="M23.576 90.4281C15.2431 84.5706 8.98956 76.2141 5.71993 66.5675C2.45029 56.9209 2.33411 46.4843 5.38817 36.7673C8.44223 27.0503 14.5082 18.5567 22.7086 12.5151C30.9091 6.47358 40.8188 3.19728 51.0044 3.16016" stroke="#FEF7F6" stroke-width="5" stroke-miterlimit="10" stroke-linejoin="round"/>
<path d="M77.1953 33.6981V11.8926H99.0009" stroke="#FEF7F6" stroke-width="5" stroke-miterlimit="10" stroke-linejoin="round"/>
<path d="M24.8056 68.6217V90.4273H3" stroke="#FEF7F6" stroke-width="5" stroke-miterlimit="10" stroke-linejoin="round"/>
</svg>
