<svg width="59" height="54" viewBox="0 0 59 54" fill="none" xmlns="http://www.w3.org/2000/svg">
<path d="M51 13.8267H8.33333C5.38781 13.8267 3 16.2145 3 19.16V45.8267C3 48.7722 5.38781 51.16 8.33333 51.16H51C53.9455 51.16 56.3333 48.7722 56.3333 45.8267V19.16C56.3333 16.2145 53.9455 13.8267 51 13.8267Z" stroke="#FFF2FD" stroke-width="5" stroke-linecap="round" stroke-linejoin="round"/>
<path d="M40.3294 51.1602V8.49349C40.3294 7.079 39.7675 5.72245 38.7673 4.72225C37.7671 3.72206 36.4106 3.16016 34.9961 3.16016H24.3294C22.9149 3.16016 21.5584 3.72206 20.5582 4.72225C19.558 5.72245 18.9961 7.079 18.9961 8.49349V51.1602" stroke="#FFF2FD" stroke-width="5" stroke-linecap="round" stroke-linejoin="round"/>
</svg>
