<svg width="41" height="48" viewBox="0 0 41 48" fill="none" xmlns="http://www.w3.org/2000/svg">
<path d="M40.0754 13.4631L27.1523 0.540001C26.9807 0.368614 26.7771 0.232711 26.553 0.140056C26.3288 0.0474015 26.0887 -0.000190128 25.8462 5.70828e-07H3.69231C2.71305 5.70828e-07 1.77389 0.38901 1.08145 1.08145C0.38901 1.77389 0 2.71305 0 3.69231V44.3077C0 45.287 0.38901 46.2261 1.08145 46.9185C1.77389 47.611 2.71305 48 3.69231 48H36.9231C37.9023 48 38.8415 47.611 39.5339 46.9185C40.2264 46.2261 40.6154 45.287 40.6154 44.3077V14.7692C40.6156 14.5267 40.568 14.2865 40.4753 14.0624C40.3827 13.8383 40.2468 13.6347 40.0754 13.4631ZM27.6923 35.0769H12.9231C12.4334 35.0769 11.9639 34.8824 11.6176 34.5362C11.2714 34.19 11.0769 33.7204 11.0769 33.2308C11.0769 32.7411 11.2714 32.2716 11.6176 31.9253C11.9639 31.5791 12.4334 31.3846 12.9231 31.3846H27.6923C28.1819 31.3846 28.6515 31.5791 28.9977 31.9253C29.344 32.2716 29.5385 32.7411 29.5385 33.2308C29.5385 33.7204 29.344 34.19 28.9977 34.5362C28.6515 34.8824 28.1819 35.0769 27.6923 35.0769ZM27.6923 27.6923H12.9231C12.4334 27.6923 11.9639 27.4978 11.6176 27.1516C11.2714 26.8054 11.0769 26.3358 11.0769 25.8462C11.0769 25.3565 11.2714 24.8869 11.6176 24.5407C11.9639 24.1945 12.4334 24 12.9231 24H27.6923C28.1819 24 28.6515 24.1945 28.9977 24.5407C29.344 24.8869 29.5385 25.3565 29.5385 25.8462C29.5385 26.3358 29.344 26.8054 28.9977 27.1516C28.6515 27.4978 28.1819 27.6923 27.6923 27.6923ZM25.8462 14.7692V4.61539L36 14.7692H25.8462Z" fill="#868EA3"/>
</svg>
