<svg width="41" height="48" viewBox="0 0 41 48" fill="none" xmlns="http://www.w3.org/2000/svg">
<path d="M40.0754 13.4631L27.1523 0.540001C26.9807 0.368614 26.7771 0.232711 26.553 0.140056C26.3288 0.0474015 26.0887 -0.000190128 25.8462 5.70828e-07H3.69231C2.71305 5.70828e-07 1.77389 0.38901 1.08145 1.08145C0.38901 1.77389 0 2.71305 0 3.69231V44.3077C0 45.287 0.38901 46.2261 1.08145 46.9185C1.77389 47.611 2.71305 48 3.69231 48H36.9231C37.9023 48 38.8415 47.611 39.5339 46.9185C40.2264 46.2261 40.6154 45.287 40.6154 44.3077V14.7692C40.6156 14.5267 40.568 14.2865 40.4753 14.0624C40.3827 13.8383 40.2468 13.6347 40.0754 13.4631ZM25.8462 14.7692V4.61539L36 14.7692H25.8462Z" fill="#007AFF"/>
</svg>
