<svg width="73" height="73" viewBox="0 0 73 73" fill="none" xmlns="http://www.w3.org/2000/svg">
<path d="M15.791 66.8168H22.191L28.5909 69.9999H48.705C51.0869 70.0108 53.3868 69.1312 55.1535 67.5337C56.9202 65.9361 58.0261 63.736 58.2541 61.365L60.5568 38.3049C60.5736 38.1021 60.5736 37.8982 60.5568 37.6954C60.5568 36.895 60.3991 36.1024 60.0928 35.3629C59.7865 34.6234 59.3375 33.9514 58.7715 33.3855C58.2055 32.8195 57.5336 32.3705 56.7941 32.0642C56.0546 31.7579 55.262 31.6002 54.4616 31.6002H41.3908L41.7294 30.923C43.6177 27.1606 44.6032 23.01 44.6077 18.8003C44.6083 17.1319 43.9573 15.5292 42.7934 14.3337C41.6296 13.1382 40.0449 12.4445 38.3771 12.4004C36.6797 12.4004 35.0518 13.0747 33.8516 14.2749C32.6514 15.4751 31.9771 17.103 31.9771 18.8003C31.9776 20.8323 31.5771 22.8444 30.7985 24.7213C30.0198 26.5982 28.8784 28.3029 27.4396 29.7378L22.3603 34.7833H15.791" stroke="black" stroke-width="5" stroke-miterlimit="10"/>
<path d="M15.7999 31.5996H3V69.9993H15.7999V31.5996Z" stroke="black" stroke-width="5" stroke-miterlimit="10"/>
<path d="M60.5914 6L62.6909 10.1989L67.33 10.8761L63.9776 14.1608L64.7565 18.7999L60.5914 16.5988L56.4602 18.7999L57.2391 14.1608L53.8867 10.8761L58.5258 10.1989L60.5914 6Z" stroke="black" stroke-width="5" stroke-miterlimit="10"/>
</svg>
