<svg width="46" height="46" viewBox="0 0 46 46" fill="none" xmlns="http://www.w3.org/2000/svg">
<path d="M9.95312 41.8156H13.9326L17.912 43.7948H30.4188C31.8999 43.8016 33.33 43.2546 34.4285 42.2613C35.527 41.2679 36.2147 39.8999 36.3564 38.4257L37.7882 24.087C37.7986 23.9609 37.7986 23.8341 37.7882 23.708C37.7882 23.2103 37.6902 22.7175 37.4997 22.2577C37.3092 21.7979 37.0301 21.3801 36.6781 21.0281C36.3262 20.6762 35.9084 20.397 35.4486 20.2066C34.9888 20.0161 34.4959 19.9181 33.9982 19.9181H25.8709L26.0815 19.497C27.2556 17.1576 27.8684 14.5767 27.8712 11.9592C27.8715 10.9218 27.4667 9.9252 26.7431 9.18187C26.0194 8.43853 25.0341 8.00718 23.997 7.97974C22.9416 7.97974 21.9294 8.399 21.1831 9.14529C20.4368 9.89158 20.0175 10.9038 20.0175 11.9592C20.0179 13.2227 19.7688 14.4738 19.2847 15.6408C18.8005 16.8078 18.0908 17.8678 17.1961 18.76L14.0378 21.8973H9.95312" stroke="white" stroke-width="3" stroke-miterlimit="10"/>
<path d="M9.95889 19.9179H2V43.7946H9.95889V19.9179Z" stroke="white" stroke-width="3" stroke-miterlimit="10"/>
<path d="M37.8096 4L39.115 6.61085L41.9996 7.03196L39.9151 9.07432L40.3994 11.9589L37.8096 10.5903L35.2408 11.9589L35.7251 9.07432L33.6406 7.03196L36.5252 6.61085L37.8096 4Z" stroke="white" stroke-width="3" stroke-miterlimit="10"/>
</svg>
