<svg width="58" height="53" viewBox="0 0 58 53" fill="none" xmlns="http://www.w3.org/2000/svg">
<path d="M55 44.7602C55 46.1393 54.4521 47.4619 53.477 48.4371C52.5018 49.4123 51.1791 49.9602 49.8 49.9602H8.2C6.82087 49.9602 5.49823 49.4123 4.52304 48.4371C3.54786 47.4619 3 46.1393 3 44.7602V8.36016C3 6.98103 3.54786 5.65839 4.52304 4.6832C5.49823 3.70801 6.82087 3.16016 8.2 3.16016H21.2L26.4 10.9602H49.8C51.1791 10.9602 52.5018 11.508 53.477 12.4832C54.4521 13.4584 55 14.781 55 16.1602V44.7602Z" stroke="#ECF6FF" stroke-width="5" stroke-linecap="round" stroke-linejoin="round"/>
<path d="M29 23.9602V39.5602" stroke="#ECF6FF" stroke-width="5" stroke-linecap="round" stroke-linejoin="round"/>
<path d="M21.2012 31.7603H36.8012" stroke="#ECF6FF" stroke-width="5" stroke-linecap="round" stroke-linejoin="round"/>
</svg>
