<svg width="61" height="66" viewBox="0 0 61 66" fill="none" xmlns="http://www.w3.org/2000/svg">
<path d="M20.4844 53C20.4844 55.6521 21.5379 58.1956 23.4133 60.071C25.2886 61.9463 27.8321 62.9999 30.4842 62.9999C33.1364 62.9999 35.6799 61.9463 37.5552 60.071C39.4306 58.1956 40.4841 55.6521 40.4841 53" stroke="#0D0D0D" stroke-width="6" stroke-linecap="round" stroke-linejoin="round"/>
<path d="M7.9849 25.4997C7.9849 19.5324 10.3554 13.8095 14.5749 9.59001C18.7944 5.3705 24.5173 3 30.4846 3C36.4519 3 42.1748 5.3705 46.3943 9.59001C50.6138 13.8095 52.9843 19.5324 52.9843 25.4997C52.9843 36.6933 55.578 45.687 57.6405 49.2494C57.8596 49.6288 57.9751 50.0591 57.9755 50.4972C57.9758 50.9353 57.8611 51.3658 57.6427 51.7456C57.4244 52.1254 57.11 52.4411 56.7312 52.6611C56.3524 52.8812 55.9224 52.9978 55.4843 52.9994H5.48493C5.04737 52.9967 4.61817 52.8793 4.24022 52.6588C3.86227 52.4383 3.54881 52.1225 3.33117 51.7429C3.11353 51.3633 2.99934 50.9332 3 50.4956C3.00067 50.0581 3.11617 49.6284 3.33496 49.2494C5.39431 45.687 7.9849 36.6902 7.9849 25.4997Z" stroke="#0D0D0D" stroke-width="6" stroke-linecap="round" stroke-linejoin="round"/>
</svg>
