<svg width="41" height="44" viewBox="0 0 41 44" fill="none" xmlns="http://www.w3.org/2000/svg">
<path d="M13.6562 35.3335C13.6563 37.1016 14.3586 38.7973 15.6089 40.0475C16.8591 41.2977 18.5548 42.0001 20.3228 42.0001C22.0909 42.0001 23.7866 41.2977 25.0368 40.0475C26.2871 38.7973 26.9894 37.1016 26.9894 35.3335" stroke="white" stroke-width="4" stroke-linecap="round" stroke-linejoin="round"/>
<path d="M5.32327 16.9998C5.32327 13.0216 6.90361 9.20637 9.71662 6.39335C12.5296 3.58034 16.3449 2 20.3231 2C24.3013 2 28.1166 3.58034 30.9296 6.39335C33.7426 9.20637 35.323 13.0216 35.323 16.9998C35.323 24.4623 37.0521 30.458 38.4271 32.833C38.5731 33.0859 38.6501 33.3728 38.6504 33.6649C38.6506 33.9569 38.5741 34.2439 38.4286 34.4971C38.283 34.7503 38.0734 34.9608 37.8209 35.1075C37.5683 35.2542 37.2817 35.332 36.9896 35.333H3.65662C3.36492 35.3312 3.07878 35.2529 2.82681 35.1059C2.57485 34.959 2.36587 34.7484 2.22078 34.4953C2.07569 34.2423 1.99956 33.9555 2 33.6638C2.00045 33.3721 2.07744 33.0856 2.22331 32.833C3.59621 30.458 5.32327 24.4602 5.32327 16.9998Z" stroke="white" stroke-width="4" stroke-linecap="round" stroke-linejoin="round"/>
</svg>
