<svg width="41" height="48" viewBox="0 0 41 48" fill="none" xmlns="http://www.w3.org/2000/svg">
<path d="M40.0754 13.4631L27.1523 0.540001C26.9807 0.368614 26.7771 0.232711 26.553 0.140056C26.3288 0.0474015 26.0887 -0.000190128 25.8462 5.70828e-07H3.69231C2.71305 5.70828e-07 1.77389 0.38901 1.08145 1.08145C0.38901 1.77389 0 2.71305 0 3.69231V44.3077C0 45.287 0.38901 46.2261 1.08145 46.9185C1.77389 47.611 2.71305 48 3.69231 48H36.9231C37.9023 48 38.8415 47.611 39.5339 46.9185C40.2264 46.2261 40.6154 45.287 40.6154 44.3077V14.7692C40.6156 14.5267 40.568 14.2865 40.4753 14.0624C40.3827 13.8383 40.2468 13.6347 40.0754 13.4631ZM25.8462 14.7692V4.61539L36 14.7692H25.8462Z" fill="#E35C49"/>
<path d="M34.0746 26.8534C34.0746 27.1665 33.9503 27.4667 33.7289 27.6881C33.5075 27.9095 33.2072 28.0339 32.8941 28.0339H29.3526V30.3949H31.7136C32.0267 30.3949 32.327 30.5193 32.5484 30.7407C32.7698 30.9621 32.8941 31.2623 32.8941 31.5754C32.8941 31.8885 32.7698 32.1888 32.5484 32.4102C32.327 32.6316 32.0267 32.7559 31.7136 32.7559H29.3526V35.117C29.3526 35.43 29.2282 35.7303 29.0068 35.9517C28.7854 36.1731 28.4852 36.2975 28.1721 36.2975C27.859 36.2975 27.5587 36.1731 27.3373 35.9517C27.1159 35.7303 26.9916 35.43 26.9916 35.117V26.8534C26.9916 26.5403 27.1159 26.24 27.3373 26.0186C27.5587 25.7972 27.859 25.6729 28.1721 25.6729H32.8941C33.2072 25.6729 33.5075 25.7972 33.7289 26.0186C33.9503 26.24 34.0746 26.5403 34.0746 26.8534ZM10.4644 25.6729H8.10336C7.79027 25.6729 7.49001 25.7972 7.26862 26.0186C7.04723 26.24 6.92285 26.5403 6.92285 26.8534V35.117C6.92285 35.43 7.04723 35.7303 7.26862 35.9517C7.49001 36.1731 7.79027 36.2975 8.10336 36.2975C8.41646 36.2975 8.71672 36.1731 8.93811 35.9517C9.1595 35.7303 9.28388 35.43 9.28388 35.117V33.9364H10.4644C11.5602 33.9364 12.6111 33.5011 13.386 32.7263C14.1609 31.9514 14.5962 30.9005 14.5962 29.8046C14.5962 28.7088 14.1609 27.6579 13.386 26.883C12.6111 26.1082 11.5602 25.6729 10.4644 25.6729ZM10.4644 31.5754H9.28388V28.0339H10.4644C10.934 28.0339 11.3844 28.2204 11.7165 28.5525C12.0486 28.8846 12.2352 29.335 12.2352 29.8046C12.2352 30.2743 12.0486 30.7247 11.7165 31.0568C11.3844 31.3889 10.934 31.5754 10.4644 31.5754ZM19.9085 25.6729H17.5475C17.2344 25.6729 16.9341 25.7972 16.7127 26.0186C16.4913 26.24 16.367 26.5403 16.367 26.8534V35.117C16.367 35.43 16.4913 35.7303 16.7127 35.9517C16.9341 36.1731 17.2344 36.2975 17.5475 36.2975H19.9085C21.3174 36.2975 22.6686 35.7378 23.6649 34.7415C24.6611 33.7453 25.2208 32.3941 25.2208 30.9852C25.2208 29.5762 24.6611 28.225 23.6649 27.2288C22.6686 26.2325 21.3174 25.6729 19.9085 25.6729ZM19.9085 33.9364H18.728V28.0339H19.9085C20.6912 28.0339 21.4419 28.3448 21.9954 28.8983C22.5488 29.4518 22.8598 30.2024 22.8598 30.9852C22.8598 31.7679 22.5488 32.5186 21.9954 33.072C21.4419 33.6255 20.6912 33.9364 19.9085 33.9364Z" fill="white"/>
</svg>
