<svg width="220" height="165" viewBox="0 0 220 165" fill="none" xmlns="http://www.w3.org/2000/svg">
<path d="M51.2621 164.16C40.2265 164.16 30.7929 161.489 22.9612 156.147C15.4854 150.449 9.78964 142.97 5.87379 133.711C1.95793 124.451 0 114.479 0 103.795C0 88.8377 3.02589 74.7704 9.07767 61.5934C15.1294 48.0603 23.1392 35.9517 33.1068 25.2677C43.4304 14.5836 55.178 6.21445 68.3495 0.160156L99.8544 25.2677C90.2427 28.829 81.343 33.6368 73.1553 39.6911C65.3236 45.3893 58.5599 51.7997 52.8641 58.9224C47.5243 66.0451 43.4304 73.3458 40.5825 80.8247L43.2524 82.4273C45.0324 81.0027 47.1683 79.9343 49.6602 79.222C52.1521 78.5098 55.712 78.1536 60.3398 78.1536C66.0356 78.1536 71.7314 79.7563 77.4272 82.9615C83.123 85.8106 87.9288 90.2622 91.8447 96.3165C95.7605 102.015 97.7185 109.315 97.7185 118.219C97.7185 127.834 95.5825 136.026 91.3107 142.792C87.0388 149.559 81.343 154.901 74.2233 158.818C67.4595 162.379 59.8058 164.16 51.2621 164.16ZM170.874 164.16C159.838 164.16 150.405 161.489 142.573 156.147C135.097 150.449 129.401 142.97 125.485 133.711C121.57 124.451 119.612 114.479 119.612 103.795C119.612 88.8377 122.638 74.7704 128.689 61.5934C134.741 48.0603 142.751 35.9517 152.718 25.2677C163.042 14.5836 174.79 6.21445 187.961 0.160156L220 25.2677C210.388 28.829 201.489 33.6368 193.301 39.6911C185.113 45.3893 178.172 51.7997 172.476 58.9224C167.136 66.0451 163.042 73.3458 160.194 80.8247L162.864 82.4273C164.644 81.0027 166.78 79.9343 169.272 79.222C171.764 78.5098 175.324 78.1536 179.951 78.1536C185.647 78.1536 191.343 79.7563 197.039 82.9615C202.735 85.8106 207.54 90.2622 211.456 96.3165C215.372 102.015 217.33 109.315 217.33 118.219C217.33 127.834 215.194 136.026 210.922 142.792C207.006 149.559 201.489 154.901 194.369 158.818C187.249 162.379 179.417 164.16 170.874 164.16Z" fill="#F56A01" fill-opacity="0.15"/>
</svg>
