<svg width="84" height="82" viewBox="0 0 84 82" fill="none" xmlns="http://www.w3.org/2000/svg">
<path d="M52.6211 17.3477H17.1881C15.3266 17.3428 13.4825 17.7052 11.7613 18.4142C10.0402 19.1232 8.47581 20.1647 7.15784 21.4793C5.83986 22.7938 4.79419 24.3554 4.08072 26.0747C3.36725 27.794 2.99999 29.6372 3 31.4986V52.7808C3 56.5437 4.49481 60.1525 7.15559 62.8133C9.81638 65.474 13.4252 66.9688 17.1881 66.9688H24.2821L34.9046 77.5913L45.7128 66.9688H52.8069C56.5698 66.9688 60.1786 65.474 62.8393 62.8133C65.5001 60.1525 66.9949 56.5437 66.9949 52.7808V31.4986C66.9952 29.6214 66.6219 27.7629 65.8969 26.0313C65.1718 24.2998 64.1095 22.7298 62.7717 21.4128C61.434 20.0958 59.8476 19.0581 58.1049 18.3602C56.3623 17.6623 54.4981 17.3181 52.6211 17.3477Z" stroke="#E6FFF9" stroke-width="5" stroke-miterlimit="10"/>
<path d="M66.8087 52.7813C68.6781 52.7813 70.5292 52.4119 72.2554 51.6942C73.9816 50.9766 75.549 49.9249 76.8675 48.5995C78.186 47.2741 79.2295 45.7013 79.9381 43.9713C80.6468 42.2413 81.0065 40.3884 80.9967 38.5189V17.3482C80.9967 13.5853 79.5019 9.97653 76.8411 7.31575C74.1804 4.65497 70.5716 3.16016 66.8087 3.16016H31.3756C27.6127 3.16016 24.0039 4.65497 21.3431 7.31575C18.6823 9.97653 17.1875 13.5853 17.1875 17.3482" stroke="#E6FFF9" stroke-width="5" stroke-miterlimit="10"/>
<path d="M17.1875 35.064H52.6206" stroke="#E6FFF9" stroke-width="5" stroke-miterlimit="10"/>
<path d="M17.1875 49.2534H52.6206" stroke="#E6FFF9" stroke-width="5" stroke-miterlimit="10"/>
</svg>
