<svg width="60" height="61" viewBox="0 0 60 61" fill="none" xmlns="http://www.w3.org/2000/svg">
<path d="M15 37.6602C19.1421 37.6602 22.5 34.3023 22.5 30.1602C22.5 26.018 19.1421 22.6602 15 22.6602C10.8579 22.6602 7.5 26.018 7.5 30.1602C7.5 34.3023 10.8579 37.6602 15 37.6602Z" stroke="#FFEDD6" stroke-width="4" stroke-linecap="round" stroke-linejoin="round"/>
<path d="M41.25 54.5352C45.3921 54.5352 48.75 51.1773 48.75 47.0352C48.75 42.893 45.3921 39.5352 41.25 39.5352C37.1079 39.5352 33.75 42.893 33.75 47.0352C33.75 51.1773 37.1079 54.5352 41.25 54.5352Z" stroke="#FFEDD6" stroke-width="4" stroke-linecap="round" stroke-linejoin="round"/>
<path d="M41.25 20.7852C45.3921 20.7852 48.75 17.4273 48.75 13.2852C48.75 9.14302 45.3921 5.78516 41.25 5.78516C37.1079 5.78516 33.75 9.14302 33.75 13.2852C33.75 17.4273 37.1079 20.7852 41.25 20.7852Z" stroke="#FFEDD6" stroke-width="4" stroke-linecap="round" stroke-linejoin="round"/>
<path d="M34.9426 17.3389L21.3066 26.1045" stroke="#FFEDD6" stroke-width="4" stroke-linecap="round" stroke-linejoin="round"/>
<path d="M21.3066 34.2139L34.9426 42.9795" stroke="#FFEDD6" stroke-width="4" stroke-linecap="round" stroke-linejoin="round"/>
</svg>
