<svg width="70" height="86" viewBox="0 0 70 86" fill="none" xmlns="http://www.w3.org/2000/svg">
<path d="M50.7419 11.8293H58.6675C60.7696 11.8293 62.7855 12.6643 64.2718 14.1507C65.7582 15.637 66.5932 17.6529 66.5932 19.755V75.2348C66.5932 77.3368 65.7582 79.3527 64.2718 80.8391C62.7855 82.3254 60.7696 83.1604 58.6675 83.1604H11.1134C9.01141 83.1604 6.99548 82.3254 5.50912 80.8391C4.02277 79.3527 3.18774 77.3368 3.18774 75.2348V19.755C3.18774 17.6529 4.02277 15.637 5.50912 14.1507C6.99548 12.6643 9.01141 11.8293 11.1134 11.8293H19.0391" stroke="#E9F7FF" stroke-width="5" stroke-linecap="round" stroke-linejoin="round"/>
<path d="M24.2385 47.7425L31.6689 55.1729L46.5295 40.3122" stroke="#E9F7FF" stroke-width="5" stroke-linecap="round" stroke-linejoin="round"/>
<path d="M46.7792 3.16034H23.0021C20.8135 3.16034 19.0393 4.93456 19.0393 7.12318V15.0489C19.0393 17.2375 20.8135 19.0117 23.0021 19.0117H46.7792C48.9678 19.0117 50.742 17.2375 50.742 15.0489V7.12318C50.742 4.93456 48.9678 3.16034 46.7792 3.16034Z" stroke="#E9F7FF" stroke-width="5" stroke-linecap="round" stroke-linejoin="round"/>
</svg>
